<?xml version="1.0" encoding="UTF-8"?>
<svg xmlns="http://www.w3.org/2000/svg" xmlns:xlink="http://www.w3.org/1999/xlink" width="375pt" height="374.999991pt" viewBox="0 0 375 374.999991" version="1.2">
<defs>
<clipPath id="clip1">
  <path d="M 27.21875 23.949219 L 347.46875 23.949219 L 347.46875 350.949219 L 27.21875 350.949219 Z M 27.21875 23.949219 "/>
</clipPath>
</defs>
<g id="surface1">
<g clip-path="url(#clip1)" clip-rule="nonzero">
<path style=" stroke:none;fill-rule:nonzero;fill:rgb(58.428955%,50.979614%,87.449646%);fill-opacity:1;" d="M 307.386719 110.703125 C 329.453125 110.703125 347.402344 92.746094 347.402344 70.664062 C 347.402344 48.578125 329.453125 30.621094 307.386719 30.621094 C 285.320312 30.621094 267.371094 48.578125 267.371094 70.664062 C 267.371094 76.761719 268.78125 82.527344 271.234375 87.707031 L 182.550781 149.4375 C 175.28125 142.015625 165.175781 137.398438 154 137.398438 C 150.265625 137.398438 146.667969 137.949219 143.234375 138.910156 L 123.476562 96.828125 C 133.84375 89.589844 140.660156 77.578125 140.660156 63.988281 C 140.660156 41.90625 122.714844 23.949219 100.648438 23.949219 C 78.578125 23.949219 60.632812 41.90625 60.632812 63.988281 C 60.632812 86.070312 78.578125 104.03125 100.648438 104.03125 C 104.382812 104.03125 107.976562 103.476562 111.410156 102.515625 L 131.171875 144.597656 C 120.792969 151.839844 113.984375 163.851562 113.984375 177.4375 C 113.984375 186.601562 117.105469 195.023438 122.300781 201.777344 L 89.242188 237.417969 C 82.933594 233.261719 75.40625 230.824219 67.300781 230.824219 C 45.234375 230.824219 27.289062 248.785156 27.289062 270.867188 C 27.289062 292.949219 45.234375 310.90625 67.300781 310.90625 C 89.371094 310.90625 107.316406 292.949219 107.316406 270.867188 C 107.316406 261.703125 104.195312 253.28125 99 246.527344 L 132.058594 210.886719 C 138.359375 215.042969 145.894531 217.480469 154 217.480469 C 157.488281 217.480469 160.847656 216.984375 164.074219 216.144531 L 191.765625 277.652344 C 181.0625 284.847656 174.007812 297.066406 174.007812 310.90625 C 174.007812 332.988281 191.953125 350.949219 214.019531 350.949219 C 236.089844 350.949219 254.035156 332.988281 254.035156 310.90625 C 254.035156 288.824219 236.089844 270.867188 214.019531 270.867188 C 210.53125 270.867188 207.171875 271.359375 203.945312 272.203125 L 176.253906 210.691406 C 180.320312 207.957031 183.835938 204.484375 186.664062 200.488281 L 268.945312 239.828125 C 267.945312 243.332031 267.371094 247.023438 267.371094 250.847656 C 267.371094 272.929688 285.320312 290.886719 307.386719 290.886719 C 329.453125 290.886719 347.402344 272.929688 347.402344 250.847656 C 347.402344 228.761719 329.453125 210.804688 307.386719 210.804688 C 293.902344 210.804688 281.972656 217.539062 274.722656 227.796875 L 192.4375 188.457031 C 193.441406 184.953125 194.011719 181.261719 194.011719 177.4375 C 194.011719 171.339844 192.605469 165.574219 190.152344 160.394531 L 278.835938 98.664062 C 286.105469 106.085938 296.210938 110.703125 307.386719 110.703125 Z M 73.96875 63.988281 C 73.96875 49.265625 85.933594 37.296875 100.648438 37.296875 C 115.359375 37.296875 127.324219 49.265625 127.324219 63.988281 C 127.324219 78.710938 115.359375 90.683594 100.648438 90.683594 C 85.933594 90.683594 73.96875 78.710938 73.96875 63.988281 Z M 240.695312 310.90625 C 240.695312 325.628906 228.730469 337.601562 214.019531 337.601562 C 199.308594 337.601562 187.34375 325.628906 187.34375 310.90625 C 187.34375 296.1875 199.308594 284.214844 214.019531 284.214844 C 228.730469 284.214844 240.695312 296.1875 240.695312 310.90625 Z M 307.386719 224.152344 C 322.097656 224.152344 334.0625 236.125 334.0625 250.847656 C 334.0625 265.566406 322.097656 277.539062 307.386719 277.539062 C 292.675781 277.539062 280.710938 265.566406 280.710938 250.847656 C 280.710938 236.125 292.675781 224.152344 307.386719 224.152344 Z M 67.300781 297.558594 C 52.589844 297.558594 40.625 285.589844 40.625 270.867188 C 40.625 256.144531 52.589844 244.171875 67.300781 244.171875 C 82.011719 244.171875 93.976562 256.144531 93.976562 270.867188 C 93.976562 285.589844 82.011719 297.558594 67.300781 297.558594 Z M 154 204.132812 C 139.289062 204.132812 127.324219 192.160156 127.324219 177.4375 C 127.324219 162.714844 139.289062 150.742188 154 150.742188 C 168.710938 150.742188 180.675781 162.714844 180.675781 177.4375 C 180.675781 192.160156 168.710938 204.132812 154 204.132812 Z M 307.386719 43.96875 C 322.097656 43.96875 334.0625 55.941406 334.0625 70.664062 C 334.0625 85.382812 322.097656 97.355469 307.386719 97.355469 C 292.675781 97.355469 280.710938 85.382812 280.710938 70.664062 C 280.710938 55.941406 292.675781 43.96875 307.386719 43.96875 Z M 307.386719 43.96875 "/>
</g>
</g>
</svg>
